<svg xmlns="http://www.w3.org/2000/svg" viewBox="0 0 448 512"><path fill="currentColor" d="M170 52L171 52L152 80L171 52L152 80L297 80L278 52Q275 48 271 48L177 48Q173 48 170 52M317 25L318 25L354 80L318 25L354 80L368 80L424 80Q446 82 448 104Q446 126 424 128L416 128L416 432Q415 466 393 489Q370 511 336 512L112 512Q78 511 55 489Q33 466 32 432L32 128L24 128Q2 126 0 104Q2 82 24 80L32 80L94 80L131 25Q148 1 177 0L271 0Q300 1 317 25M80 128L80 432L80 128L80 432Q80 446 89 455Q98 464 112 464L336 464Q350 464 359 455Q368 446 368 432L368 128L80 128M160 192L160 400L160 192L160 400Q159 415 144 416Q129 415 128 400L128 192Q129 177 144 176Q159 177 160 192M240 192L240 400L240 192L240 400Q239 415 224 416Q209 415 208 400L208 192Q209 177 224 176Q239 177 240 192M320 192L320 400L320 192L320 400Q319 415 304 416Q289 415 288 400L288 192Q289 177 304 176Q319 177 320 192"/></svg>
